# xmcd
#
# Track frame offsets: 
#        150
#        18023
#        34528
#        55860
#        72748
#        88652
#        106283
#        124533
#        140546
#        158780
#        175528
#
# Disc length: 2538 seconds
#
# Revision: 0
# Processed by: cddbd v1.5.2PL0 Copyright (c) Steve Scherf et al.
# Submitted via: ExactAudioCopy v0.99pb5
#
DISCID=8609e80b
DTITLE=เฮฮาปาร์ตี้ vol1 - เฮฮาปาร์ตี้ vol1
DYEAR=2010
DGENRE=Country
TTITLE0=บ่อสร้างกางจ้อง
TTITLE1=สาวซำน้อย
TTITLE2=วัยทีนยโสธร
TTITLE3=มันมากับความเมา
TTITLE4=สุดเหงา
TTITLE5=ไอ้หนุ่มหน้าบ้าน
TTITLE6=กลัว
TTITLE7=แขกขายมุ้ง
TTITLE8=หนุ่มอีสานแอ่วเหนือ
TTITLE9=เรารอเขาลืม
TTITLE10=ไอ้หนุ่มต.ช.ด.
EXTD=
EXTT0=
EXTT1=
EXTT2=
EXTT3=
EXTT4=
EXTT5=
EXTT6=
EXTT7=
EXTT8=
EXTT9=
EXTT10=
PLAYORDER=
